# xmcd CD database file
#
# Track frame offsets:
#	150
#	27052
#	58302
#
# Disc length: 1135 seconds
#
# Revision: 3
# Processed by: cddbd v1.5PL3 Copyright (c) Steve Scherf et al.
# Submitted via: CDex 1.50beta9
#
DISCID=20046d03
DTITLE=宇都宮隆 - if you wish...
DYEAR=1997
DGENRE=JPop
TTITLE0=if you wish...(Straight Run)
TTITLE1=if you wish...(Intensive Remix)
TTITLE2=if you wish...(Instrumental)
EXTD=YEAR: 1997
EXTT0=
EXTT1=
EXTT2=
PLAYORDER=
